<svg width="24" height="20" viewBox="0 0 24 20" fill="none" xmlns="http://www.w3.org/2000/svg">
<path fill-rule="evenodd" clip-rule="evenodd" d="M4 1C1.79086 1 0 2.79086 0 5V15C0 17.2091 1.79086 19 4 19H20C22.2091 19 24 17.2091 24 15V5C24 2.79086 22.2091 1 20 1H4ZM6.17576 14.3164C6.17576 14.8086 5.88182 15.1094 5.41014 15.1094C4.93162 15.1094 4.64451 14.8086 4.64451 14.3164V5.92871C4.64451 5.43652 4.93162 5.13574 5.41014 5.13574H8.34275C10.2568 5.13574 11.5898 6.45508 11.5898 8.37598C11.5898 10.3037 10.2295 11.6299 8.2949 11.6299H6.17576V14.3164ZM6.17576 6.42773V10.3447H7.9326C9.2656 10.3447 10.0244 9.62695 10.0244 8.38281C10.0244 7.13867 9.2656 6.42773 7.93943 6.42773H6.17576ZM16.9082 14.3164C16.9082 14.8086 16.6142 15.1094 16.1426 15.1094C15.664 15.1094 15.3769 14.8086 15.3769 14.3164V6.46191H12.957C12.5332 6.46191 12.2461 6.20215 12.2461 5.79883C12.2461 5.39551 12.5332 5.13574 12.957 5.13574H19.3213C19.7451 5.13574 20.0322 5.39551 20.0322 5.79883C20.0322 6.20215 19.7451 6.46191 19.3213 6.46191H16.9082V14.3164Z" fill="black"/>
</svg>
