<svg width="24" height="20" viewBox="0 0 24 20" fill="none" xmlns="http://www.w3.org/2000/svg">
<path fill-rule="evenodd" clip-rule="evenodd" d="M4 1C1.79086 1 0 2.79086 0 5V15C0 17.2091 1.79086 19 4 19H20C22.2091 19 24 17.2091 24 15V5C24 2.79086 22.2091 1 20 1H4ZM10.4004 15H5.50584C5.02732 15 4.74021 14.6992 4.74021 14.207V5.92871C4.74021 5.43652 5.02732 5.13574 5.50584 5.13574H10.4004C10.8242 5.13574 11.1113 5.39551 11.1113 5.79883C11.1113 6.20215 10.8242 6.46191 10.4004 6.46191H6.27146V9.33984H10.1748C10.5781 9.33984 10.8584 9.58594 10.8584 9.97559C10.8584 10.3584 10.5849 10.6113 10.1748 10.6113H6.27146V13.6738H10.4004C10.8242 13.6738 11.1113 13.9336 11.1113 14.3369C11.1113 14.7402 10.8242 15 10.4004 15ZM19.7041 12.1357C19.7041 13.9951 18.2412 15.1641 15.9375 15.1641C14.0234 15.1641 12.7109 14.3369 12.3281 13.1885C12.2803 13.0381 12.2461 12.874 12.2461 12.71C12.2461 12.2656 12.5195 11.9785 12.9365 11.9785C13.2851 11.9785 13.5107 12.1357 13.6611 12.5049C13.9687 13.4277 14.8642 13.8584 16.0058 13.8584C17.2568 13.8584 18.1523 13.2158 18.1523 12.334C18.1523 11.5684 17.6328 11.0898 16.3135 10.8027L15.2334 10.5771C13.2646 10.1602 12.3691 9.24414 12.3691 7.82227C12.3691 6.13379 13.8525 4.97168 15.9512 4.97168C17.6533 4.97168 18.9931 5.77148 19.376 7.09082C19.4101 7.18652 19.4306 7.30273 19.4306 7.44629C19.4306 7.84277 19.1504 8.10254 18.7539 8.10254C18.3847 8.10254 18.1592 7.93164 18.0019 7.57617C17.667 6.66699 16.915 6.27734 15.9306 6.27734C14.7754 6.27734 13.9209 6.83789 13.9209 7.74023C13.9209 8.45801 14.4336 8.93652 15.7119 9.20996L16.7851 9.43555C18.8564 9.87305 19.7041 10.7002 19.7041 12.1357Z" fill="black"/>
</svg>
