<svg width="24" height="20" viewBox="0 0 24 20" fill="none" xmlns="http://www.w3.org/2000/svg">
<path fill-rule="evenodd" clip-rule="evenodd" d="M4 1C1.79086 1 0 2.79086 0 5V15C0 17.2091 1.79086 19 4 19H20C22.2091 19 24 17.2091 24 15V5C24 2.79086 22.2091 1 20 1H4ZM9.71678 15H4.82225C4.34373 15 4.05662 14.6992 4.05662 14.207V5.92871C4.05662 5.43652 4.34373 5.13574 4.82225 5.13574H9.71678C10.1406 5.13574 10.4277 5.39551 10.4277 5.79883C10.4277 6.20215 10.1406 6.46191 9.71678 6.46191H5.58787V9.33984H9.49119C9.89451 9.33984 10.1748 9.58594 10.1748 9.97559C10.1748 10.3584 9.90135 10.6113 9.49119 10.6113H5.58787V13.6738H9.71678C10.1406 13.6738 10.4277 13.9336 10.4277 14.3369C10.4277 14.7402 10.1406 15 9.71678 15ZM13.3808 14.3301C13.3808 14.8154 13.1006 15.1094 12.6357 15.1094C12.1709 15.1094 11.8906 14.8154 11.8906 14.3301V5.85352C11.8906 5.34766 12.2051 5.02637 12.7109 5.02637C13.0732 5.02637 13.2851 5.14941 13.5381 5.50488L18.3916 12.4092H18.4463V5.80566C18.4463 5.32031 18.7334 5.02637 19.1914 5.02637C19.6562 5.02637 19.9365 5.32031 19.9365 5.80566V14.3164C19.9365 14.8154 19.6426 15.1094 19.1299 15.1094C18.7539 15.1094 18.5556 14.9932 18.3027 14.6377L13.4424 7.7334H13.3808V14.3301Z" fill="black"/>
</svg>
