<svg width="80" height="60" viewBox="0 0 80 60" fill="none" xmlns="http://www.w3.org/2000/svg">
<g clip-path="url(#clip0_1_560)">
<path d="M32 0H80V60H32V0Z" fill="#FF0000"/>
<path d="M0 0H32V60H0V0Z" fill="#006600"/>
<path fill-rule="evenodd" clip-rule="evenodd" d="M42.4375 38.275C38.4 38.15 19.9375 26.625 19.8125 24.775L20.825 23.0875C22.6625 25.75 41.5375 36.9625 43.4 36.5625L42.4375 38.275Z" fill="#FFFF00" stroke="black" stroke-width="0.075" stroke-linecap="round" stroke-linejoin="round"/>
<path fill-rule="evenodd" clip-rule="evenodd" d="M20.6125 22.85C20.25 23.825 25.4375 27.025 31.6625 30.825C37.9 34.6125 43.275 36.95 43.6625 36.625L43.85 36.275C43.775 36.4 43.6 36.4375 43.3125 36.35C41.625 35.8625 37.2375 33.85 31.8 30.55C26.35 27.25 21.625 24.2125 20.8875 22.925C20.83 22.8043 20.8042 22.6709 20.8125 22.5375H20.7875L20.6375 22.8125L20.6125 22.85ZM42.525 38.325C42.4625 38.45 42.325 38.45 42.0875 38.425C40.5875 38.2625 36.0125 36.0375 30.6 32.8C24.3 29.025 19.1 25.6 19.675 24.7L19.825 24.425L19.85 24.4375C19.35 25.9625 30.1125 32.1125 30.75 32.5125C36.975 36.3625 42.225 38.625 42.6875 38.0375L42.525 38.325Z" fill="#FFFF00" stroke="black" stroke-width="0.075" stroke-linecap="round" stroke-linejoin="round"/>
<path fill-rule="evenodd" clip-rule="evenodd" d="M32.025 25.9C36.05 25.8625 41.025 25.35 43.9 24.2L43.275 23.2C41.5875 24.1375 36.5875 24.7625 31.9875 24.85C26.5625 24.8 22.725 24.2875 20.8 23L20.225 24.075C23.75 25.575 27.375 25.8875 32.025 25.9Z" fill="#FFFF00" stroke="black" stroke-width="0.075" stroke-linecap="round" stroke-linejoin="round"/>
<path fill-rule="evenodd" clip-rule="evenodd" d="M44.0625 24.225C43.9625 24.3875 42.0875 25.025 39.3375 25.5C36.9133 25.8674 34.4644 26.0471 32.0125 26.0375C29.6634 26.0463 27.3163 25.896 24.9875 25.5875C22.1 25.1375 20.6125 24.5125 20.05 24.2875L20.1875 24.0125C21.775 24.6375 23.275 25.0125 25.025 25.2875C27.3368 25.5997 29.6672 25.7542 32 25.75C34.4392 25.7526 36.8751 25.5729 39.2875 25.2125C42.1 24.75 43.6375 24.1625 43.8625 23.9L44.0625 24.2375V24.225ZM43.5125 23.2125C43.2125 23.4625 41.6875 24 39.0125 24.425C36.7025 24.7592 34.3715 24.9263 32.0375 24.925C29.2875 24.925 27.025 24.725 25.3125 24.475C22.5875 24.125 21.1375 23.475 20.6125 23.3L20.775 23.025C21.1875 23.2375 22.575 23.8 25.3375 24.1875C27.5582 24.485 29.797 24.627 32.0375 24.6125C34.3549 24.6132 36.6693 24.4461 38.9625 24.1125C41.65 23.7375 43.1 23.0625 43.325 22.8875L43.5125 23.2125ZM18.7875 30.75C21.2625 32.0875 26.775 32.75 31.9875 32.8C36.7375 32.8125 42.9125 32.075 45.225 30.85L45.1625 29.5125C44.4375 30.6375 37.8125 31.725 31.9375 31.6875C26.0625 31.6375 20.6 30.7375 18.775 29.5625V30.75" fill="#FFFF00"/>
<path d="M18.7875 30.75C21.2625 32.0875 26.775 32.75 31.9875 32.8C36.7375 32.8125 42.9125 32.075 45.225 30.85L45.1625 29.5125C44.4375 30.6375 37.8125 31.725 31.9375 31.6875C26.0625 31.6375 20.6 30.7375 18.775 29.5625V30.75M44.0625 24.225C43.9625 24.3875 42.0875 25.025 39.3375 25.5C36.9133 25.8674 34.4644 26.0471 32.0125 26.0375C29.6634 26.0463 27.3163 25.896 24.9875 25.5875C22.1 25.1375 20.6125 24.5125 20.05 24.2875L20.1875 24.0125C21.775 24.6375 23.275 25.0125 25.025 25.2875C27.3368 25.5997 29.6672 25.7542 32 25.75C34.4392 25.7526 36.8751 25.5729 39.2875 25.2125C42.1 24.75 43.6375 24.1625 43.8625 23.9L44.0625 24.2375V24.225ZM43.5125 23.2125C43.2125 23.4625 41.6875 24 39.0125 24.425C36.7025 24.7592 34.3715 24.9263 32.0375 24.925C29.2875 24.925 27.025 24.725 25.3125 24.475C22.5875 24.125 21.1375 23.475 20.6125 23.3L20.775 23.025C21.1875 23.2375 22.575 23.8 25.3375 24.1875C27.5582 24.485 29.797 24.627 32.0375 24.6125C34.3549 24.6132 36.6693 24.4461 38.9625 24.1125C41.65 23.7375 43.1 23.0625 43.325 22.8875L43.5125 23.2125Z" stroke="black" stroke-width="0.075" stroke-linecap="round" stroke-linejoin="round"/>
<path fill-rule="evenodd" clip-rule="evenodd" d="M45.35 30.5625V30.875C45 31.3 42.825 31.925 40.1 32.375C37.3928 32.7641 34.66 32.948 31.925 32.925C29.3316 32.9471 26.7405 32.7674 24.175 32.3875C22.2607 32.1663 20.3901 31.6607 18.625 30.8875V30.525C19.8375 31.325 23.1125 31.925 24.2125 32.1C26.1875 32.4 28.725 32.625 31.925 32.625C35.2875 32.625 37.975 32.3875 40.05 32.075C42.0125 31.7875 44.8 31.05 45.35 30.5625ZM45.35 29.4375V29.75C45 30.1625 42.825 30.7875 40.1 31.2375C37.3931 31.6308 34.6603 31.8189 31.925 31.8C29.3318 31.8153 26.7412 31.6356 24.175 31.2625C22.2607 31.0413 20.3901 30.5357 18.625 29.7625V29.3875C19.8375 30.2 23.125 30.7875 24.2125 30.9625C26.766 31.3365 29.3443 31.5162 31.925 31.5C35.2875 31.5 37.9875 31.25 40.05 30.9375C42.0125 30.6625 44.8 29.925 45.35 29.4375ZM31.975 38.0375C26.275 38.0125 21.3875 36.4875 20.35 36.2375L21.1 37.4125C24.6061 38.6543 28.3059 39.2596 32.025 39.2C36.3625 39.075 40.15 38.7375 42.8125 37.4375L43.5875 36.2125C41.775 37.075 35.5875 38.0375 31.9625 38.0375" fill="#FFFF00"/>
<path d="M31.975 38.0375C26.275 38.0125 21.3875 36.4875 20.35 36.2375L21.1 37.4125C24.6061 38.6543 28.3059 39.2596 32.025 39.2C36.3625 39.075 40.15 38.7375 42.8125 37.4375L43.5875 36.2125C41.775 37.075 35.5875 38.0375 31.9625 38.0375M45.35 30.5625V30.875C45 31.3 42.825 31.925 40.1 32.375C37.3928 32.7641 34.66 32.948 31.925 32.925C29.3316 32.9471 26.7405 32.7674 24.175 32.3875C22.2607 32.1663 20.3901 31.6607 18.625 30.8875V30.525C19.8375 31.325 23.1125 31.925 24.2125 32.1C26.1875 32.4 28.725 32.625 31.925 32.625C35.2875 32.625 37.975 32.3875 40.05 32.075C42.0125 31.7875 44.8 31.05 45.35 30.5625ZM45.35 29.4375V29.75C45 30.1625 42.825 30.7875 40.1 31.2375C37.3931 31.6308 34.6603 31.8189 31.925 31.8C29.3318 31.8153 26.7412 31.6356 24.175 31.2625C22.2607 31.0413 20.3901 30.5357 18.625 29.7625V29.3875C19.8375 30.2 23.125 30.7875 24.2125 30.9625C26.766 31.3365 29.3443 31.5162 31.925 31.5C35.2875 31.5 37.9875 31.25 40.05 30.9375C42.0125 30.6625 44.8 29.925 45.35 29.4375Z" stroke="black" stroke-width="0.075" stroke-linecap="round" stroke-linejoin="round"/>
<path fill-rule="evenodd" clip-rule="evenodd" d="M43.1125 37.1625C42.9987 37.3311 42.882 37.4978 42.7625 37.6625C41.5125 38.1125 39.5125 38.5875 38.6875 38.7125C36.4737 39.125 34.2269 39.3342 31.975 39.3375C26.925 39.2625 22.7875 38.275 20.85 37.425L20.6875 37.1625L20.7125 37.1125L20.975 37.225C24.5325 38.4022 28.2528 39.0139 32 39.0375C34.35 39.0375 36.6875 38.775 38.575 38.4375C41.475 37.85 42.65 37.4125 43.0125 37.2125L43.1 37.1625H43.1125ZM43.775 36.0625C43.6927 36.2089 43.6094 36.3547 43.525 36.5C42.85 36.75 41.025 37.275 38.3625 37.65C36.6125 37.8875 35.525 38.125 32.0375 38.1875C28.0508 38.1475 24.0886 37.5586 20.2625 36.4375L20.125 36.125C24.0123 37.1994 28.0179 37.7872 32.05 37.875C35.2375 37.8125 36.6 37.575 38.3375 37.3375C41.4375 36.8625 43 36.3375 43.4625 36.2C43.4628 36.1917 43.4628 36.1833 43.4625 36.175L43.7875 36.05L43.775 36.0625Z" fill="#FFFF00" stroke="black" stroke-width="0.075" stroke-linecap="round" stroke-linejoin="round"/>
<path fill-rule="evenodd" clip-rule="evenodd" d="M43.85 29.7C43.8625 33.45 41.9375 36.825 40.4 38.3C38.1292 40.5147 35.0966 41.7761 31.925 41.825C28.1375 41.8875 24.575 39.425 23.6125 38.3375C21.4593 36.0541 20.2338 33.0505 20.175 29.9125C20.4 25.8125 22.0125 22.9625 24.3375 21C26.5961 19.1407 29.4372 18.1361 32.3625 18.1625C34.0702 18.2453 35.7417 18.6839 37.27 19.4502C38.7983 20.2165 40.1497 21.2936 41.2375 22.6125C42.8 24.5125 43.4875 26.575 43.85 29.7ZM31.95 16.875C35.4469 16.8749 38.802 18.2571 41.284 20.7204C43.766 23.1837 45.1736 26.5282 45.2 30.025C45.2 31.7601 44.8583 33.4782 44.1943 35.0812C43.5303 36.6842 42.5571 38.1408 41.3302 39.3676C40.1033 40.5945 38.6467 41.5678 37.0437 42.2318C35.4407 42.8957 33.7226 43.2375 31.9875 43.2375C30.2524 43.2375 28.5343 42.8957 26.9313 42.2318C25.3283 41.5678 23.8718 40.5945 22.6449 39.3676C21.418 38.1408 20.4447 36.6842 19.7808 35.0812C19.1168 33.4782 18.775 31.7601 18.775 30.025C18.7625 22.775 24.6875 16.875 31.95 16.875Z" fill="#FFFF00" stroke="black" stroke-width="0.075" stroke-linecap="round" stroke-linejoin="round"/>
<path fill-rule="evenodd" clip-rule="evenodd" d="M31.9875 16.8125C39.2625 16.8125 45.1875 22.7375 45.1875 30.0125C45.1875 37.2875 39.2625 43.2125 32 43.2125C24.7375 43.2125 18.8 37.2875 18.8 30.0125C18.8 22.7375 24.725 16.8125 32 16.8125H31.9875ZM19.075 30C19.075 37.1 24.9125 42.9125 31.9875 42.9125C39.0625 42.9125 44.9 37.1 44.9 30C44.9 22.9 39.0625 17.0875 31.9875 17.0875C24.9125 17.0875 19.075 22.9 19.075 30Z" fill="#FFFF00" stroke="black" stroke-width="0.075" stroke-linecap="round" stroke-linejoin="round"/>
<path fill-rule="evenodd" clip-rule="evenodd" d="M32 17.9125C35.2028 17.9224 38.2715 19.1991 40.5362 21.4638C42.8009 23.7285 44.0776 26.7972 44.0875 30C44.0776 33.2039 42.8014 36.274 40.537 38.5407C38.2727 40.8074 35.2039 42.0868 32 42.1C25.375 42.1 19.9125 36.65 19.9125 30C19.9257 26.7982 21.2034 23.7314 23.4674 21.4674C25.7314 19.2034 28.7983 17.9257 32 17.9125ZM20.2 30C20.2 36.5 25.525 41.8 32 41.8C38.475 41.8 43.8 36.4875 43.8 30C43.8 23.5 38.475 18.2 32 18.2C28.8745 18.2132 25.8808 19.4606 23.6707 21.6707C21.4606 23.8808 20.2132 26.8745 20.2 30Z" fill="#FFFF00" stroke="black" stroke-width="0.075" stroke-linecap="round" stroke-linejoin="round"/>
<path fill-rule="evenodd" clip-rule="evenodd" d="M32.5375 16.75H31.4V43.2875H32.525L32.5375 16.75Z" fill="#FFFF00" stroke="black" stroke-width="0.075" stroke-linecap="round" stroke-linejoin="round"/>
<path fill-rule="evenodd" clip-rule="evenodd" d="M32.4125 16.6H32.7V43.4375H32.425V16.6H32.4125ZM31.2875 16.6H31.5875V43.4375H31.3V16.6H31.2875Z" fill="#FFFF00" stroke="black" stroke-width="0.075" stroke-linecap="round" stroke-linejoin="round"/>
<path fill-rule="evenodd" clip-rule="evenodd" d="M45.2 30.525V29.55L44.4 28.8L39.8625 27.6L33.3375 26.9375L25.4625 27.3375L19.8625 28.6625L18.7375 29.5V30.4875L21.6 29.2L28.4 28.1375H34.9375L39.7375 28.6625L43.0625 29.4625L45.2 30.525Z" fill="#FFFF00" stroke="black" stroke-width="0.075" stroke-linecap="round" stroke-linejoin="round"/>
<path fill-rule="evenodd" clip-rule="evenodd" d="M32 27.975C35.1125 27.975 38.125 28.2625 40.5375 28.725C43.0125 29.225 44.75 29.85 45.35 30.5375V30.8875C44.625 30.0125 42.2875 29.3875 40.475 29.0125C38.1 28.5625 35.1 28.2625 31.9875 28.2625C28.725 28.2625 25.675 28.5875 23.325 29.0375C21.45 29.4125 18.9375 30.1625 18.625 30.8875V30.525C18.7875 30.025 20.6625 29.275 23.2875 28.7375C25.65 28.275 28.7 27.975 31.9875 27.975H32ZM32 26.8375C34.8625 26.8318 37.7198 27.0828 40.5375 27.5875C43.0125 28.0875 44.75 28.7125 45.35 29.4125V29.75C44.625 28.8875 42.2875 28.25 40.475 27.8875C38.1 27.425 35.1 27.1375 31.9875 27.1375C29.0864 27.1283 26.1907 27.3878 23.3375 27.9125C21.525 28.25 18.9125 29.025 18.625 29.75V29.4C18.8 28.9 20.7 28.1125 23.2875 27.6125C25.6625 27.15 28.7 26.8375 32 26.8375ZM31.925 21.0625C36.8375 21.0375 41.125 21.75 43.0875 22.75L43.8 24C42.1 23.075 37.475 22.125 31.9375 22.25C27.425 22.2875 22.6 22.75 20.1875 24.05L21.0375 22.625C23.025 21.5875 27.7 21.0625 31.925 21.0625Z" fill="#FFFF00" stroke="black" stroke-width="0.075" stroke-linecap="round" stroke-linejoin="round"/>
<path fill-rule="evenodd" clip-rule="evenodd" d="M32 22.0875C34.5649 22.0442 37.1287 22.2241 39.6625 22.625C41.6625 23 43.575 23.55 43.85 23.85L44.0625 24.225C43.4 23.8 41.7375 23.3125 39.6125 22.9125C37.4875 22.5125 34.775 22.375 31.9875 22.3875C28.825 22.375 26.3625 22.5375 24.2625 22.9125C22.8149 23.1154 21.4094 23.5501 20.1 24.2L20.3125 23.8125C21.0625 23.4375 22.225 22.975 24.2 22.6125C26.3875 22.2125 28.875 22.1 32 22.0875ZM32 20.9625C34.675 20.9375 37.325 21.0875 39.3875 21.4625C40.7238 21.6609 42.017 22.0835 43.2125 22.7125L43.525 23.2125C43 22.625 41.025 22.0625 39.2625 21.7625C37.2125 21.4 34.675 21.2625 32 21.2375C29.5099 21.2153 27.0222 21.3993 24.5625 21.7875C23.2764 21.9667 22.0272 22.3507 20.8625 22.925L21.1375 22.5125C21.8625 22.1375 23.0375 21.7875 24.5125 21.5C26.9885 21.1067 29.4932 20.9227 32 20.95V20.9625ZM38.55 35.5C36.3834 35.1249 34.1859 34.9575 31.9875 35C23.8 35.1 21.1625 36.6875 20.8375 37.1625L20.2125 36.1625C22.3125 34.6625 26.7625 33.8125 32.0375 33.8875C34.775 33.9375 37.1375 34.125 39.1125 34.5125L38.55 35.5125" fill="#FFFF00"/>
<path d="M38.55 35.5C36.3834 35.1249 34.1859 34.9575 31.9875 35C23.8 35.1 21.1625 36.6875 20.8375 37.1625L20.2125 36.1625C22.3125 34.6625 26.7625 33.8125 32.0375 33.8875C34.775 33.9375 37.1375 34.125 39.1125 34.5125L38.55 35.5125M32 22.0875C34.5649 22.0442 37.1287 22.2241 39.6625 22.625C41.6625 23 43.575 23.55 43.85 23.85L44.0625 24.225C43.4 23.8 41.7375 23.3125 39.6125 22.9125C37.4875 22.5125 34.775 22.375 31.9875 22.3875C28.825 22.375 26.3625 22.5375 24.2625 22.9125C22.8149 23.1154 21.4094 23.5501 20.1 24.2L20.3125 23.8125C21.0625 23.4375 22.225 22.975 24.2 22.6125C26.3875 22.2125 28.875 22.1 32 22.0875ZM32 20.9625C34.675 20.9375 37.325 21.0875 39.3875 21.4625C40.7238 21.6609 42.017 22.0835 43.2125 22.7125L43.525 23.2125C43 22.625 41.025 22.0625 39.2625 21.7625C37.2125 21.4 34.675 21.2625 32 21.2375C29.5099 21.2153 27.0222 21.3993 24.5625 21.7875C23.2764 21.9667 22.0272 22.3507 20.8625 22.925L21.1375 22.5125C21.8625 22.1375 23.0375 21.7875 24.5125 21.5C26.9885 21.1067 29.4932 20.9227 32 20.95V20.9625Z" stroke="black" stroke-width="0.075" stroke-linecap="round" stroke-linejoin="round"/>
<path fill-rule="evenodd" clip-rule="evenodd" d="M31.95 34.8625C34.225 34.9 36.45 34.9875 38.6125 35.3875L38.4625 35.6625C36.4625 35.2875 34.3125 35.1625 31.9625 35.1625C28.925 35.1375 25.875 35.425 23.2125 36.1875C22.375 36.425 20.9875 36.9625 20.8375 37.4125L20.6875 37.1625C20.7375 36.8875 21.5625 36.3375 23.1375 35.9125C26.1875 35.0375 29.0375 34.875 31.95 34.8625ZM32.05 33.7125C34.4512 33.71 36.848 33.9192 39.2125 34.3375L39.05 34.625C36.7411 34.2015 34.3974 33.9964 32.05 34.0125C29.025 34.0125 25.8125 34.2375 22.8875 35.0875C21.95 35.3625 20.3125 35.9625 20.2625 36.425L20.1125 36.15C20.1375 35.725 21.55 35.1625 22.825 34.8C25.7625 33.9375 28.9875 33.725 32.05 33.7125Z" fill="#FFFF00" stroke="black" stroke-width="0.075" stroke-linecap="round" stroke-linejoin="round"/>
<path fill-rule="evenodd" clip-rule="evenodd" d="M43.675 36.3125L42.7 37.85L39.8625 35.3375L32.5375 30.4L24.2625 25.8625L19.975 24.4L20.8875 22.7L21.2 22.5375L23.8625 23.2L32.6625 27.7375L37.7375 30.9375L42 34L43.7375 36L43.675 36.3125Z" fill="#FFFF00" stroke="black" stroke-width="0.075" stroke-linecap="round" stroke-linejoin="round"/>
<path fill-rule="evenodd" clip-rule="evenodd" d="M19.825 24.4375C20.575 23.9375 26.1 26.3875 31.9 29.8875C37.6625 33.3875 43.1875 37.3375 42.6875 38.075L42.525 38.3375L42.45 38.4C42.4625 38.3875 42.55 38.275 42.45 38.0125C42.2 37.2 38.275 34.075 31.7875 30.15C25.45 26.3875 20.175 24.1125 19.6625 24.7625L19.825 24.4375ZM43.875 36.3C44.35 35.35 39.225 31.4875 32.8625 27.725C26.3625 24.0375 21.6625 21.8625 20.8 22.5125L20.625 22.875C20.625 22.8875 20.625 22.85 20.675 22.8125C20.825 22.6875 21.0875 22.6875 21.2 22.6875C22.675 22.7125 26.8875 24.65 32.8 28.0375C35.4 29.5375 43.75 34.9125 43.7125 36.4125C43.7125 36.5375 43.725 36.5625 43.675 36.6375L43.8875 36.3125L43.875 36.3Z" fill="#FFFF00" stroke="black" stroke-width="0.075" stroke-linecap="round" stroke-linejoin="round"/>
<path d="M24.0801 31.4709C24.0821 32.5059 24.2893 33.5303 24.6898 34.4847C25.0903 35.439 25.6762 36.3045 26.4134 37.0309C27.1417 37.7704 28.0091 38.3585 28.9656 38.7612C29.9221 39.164 30.9489 39.3734 31.9868 39.3776C34.0872 39.3775 36.1016 38.5429 37.5868 37.0576C38.3214 36.3271 38.9046 35.4588 39.3027 34.5023C39.7008 33.5459 39.9061 32.5202 39.9068 31.4843V20.9242L24.0801 20.8976V31.4709Z" fill="white" stroke="black" stroke-width="0.0933336"/>
<path d="M24.3734 31.4843C24.3762 32.4771 24.5756 33.4595 24.9601 34.3749C25.3445 35.2903 25.9065 36.1205 26.6134 36.8176C28.033 38.2446 29.9606 39.0502 31.9734 39.0576C33.9827 39.0587 35.9104 38.2627 37.3335 36.8443C38.038 36.1461 38.5975 35.3154 38.9796 34.4C39.3618 33.4847 39.5591 32.5028 39.5601 31.5109V21.2442H24.4001V31.4843M36.5335 24.3242V30.8443L36.5201 31.5243C36.5246 32.1199 36.4088 32.7104 36.1797 33.2602C35.9506 33.8101 35.6129 34.308 35.1868 34.7243C34.3389 35.5751 33.188 36.0547 31.9868 36.0576C30.7334 36.0576 29.6268 35.5243 28.8001 34.6976C27.9492 33.8497 27.4697 32.6988 27.4668 31.4976V24.2976L36.5335 24.3242Z" fill="#FF0000"/>
<path d="M24.3734 31.4843C24.3762 32.4771 24.5756 33.4595 24.9601 34.3749C25.3445 35.2903 25.9065 36.1205 26.6134 36.8176C28.033 38.2446 29.9606 39.0502 31.9734 39.0576C33.9827 39.0587 35.9104 38.2627 37.3335 36.8443C38.038 36.1461 38.5975 35.3154 38.9796 34.4C39.3618 33.4847 39.5591 32.5028 39.5601 31.5109V21.2442H24.4001V31.4843M36.5335 24.3242V30.8443L36.5201 31.5243C36.5246 32.1199 36.4088 32.7104 36.1797 33.2602C35.9506 33.8101 35.6129 34.308 35.1868 34.7243C34.3389 35.5751 33.188 36.0547 31.9868 36.0576C30.7334 36.0576 29.6268 35.5243 28.8001 34.6976C27.9492 33.8497 27.4697 32.6988 27.4668 31.4976V24.2976L36.5335 24.3242Z" stroke="black" stroke-width="0.0666669"/>
<path d="M25.3601 23.9242C25.3734 23.1909 25.8934 23.0176 25.8934 23.0176C25.9067 23.0176 26.4667 23.2042 26.4667 23.9376H25.3601" fill="#FFFF00"/>
<path d="M24.9068 23.0309L24.8134 23.8709H25.3734C25.3734 23.1776 25.9068 23.0709 25.9068 23.0709C25.9201 23.0709 26.4401 23.2176 26.4534 23.8709H27.0134L26.9068 23.0176H24.9068V23.0309ZM24.7734 23.8842H27.0401C27.0801 23.8842 27.1201 23.9242 27.1201 23.9776C27.1201 24.0442 27.0801 24.0842 27.0401 24.0842H24.7734C24.7334 24.0842 24.6934 24.0442 24.6934 23.9776C24.6934 23.9242 24.7334 23.8842 24.7868 23.8842H24.7734Z" fill="#FFFF00" stroke="black" stroke-width="0.0666669"/>
<path d="M25.6001 23.8709C25.6001 23.4309 25.9068 23.3109 25.9068 23.3109C25.9068 23.3109 26.2134 23.4442 26.2134 23.8709H25.6001ZM24.8268 22.6709H27.0001C27.0401 22.6709 27.0801 22.7242 27.0801 22.7776C27.0801 22.8176 27.0401 22.8576 27.0001 22.8576H24.8268C24.7868 22.8576 24.7468 22.8176 24.7468 22.7642C24.7468 22.7242 24.7868 22.6842 24.8268 22.6842V22.6709ZM24.8801 22.8709H26.9334C26.9734 22.8709 27.0134 22.9109 27.0134 22.9642C27.0134 23.0176 26.9734 23.0576 26.9334 23.0576H24.8668C24.8134 23.0576 24.7868 23.0176 24.7868 22.9642C24.7868 22.9109 24.8134 22.8709 24.8668 22.8709H24.8801ZM25.5468 21.4576H25.7068V21.5642H25.8268V21.4576H26.0001V21.5776H26.1201V21.4442H26.2801V21.7109C26.2801 21.7642 26.2534 21.7909 26.2134 21.7909H25.6268C25.5868 21.7909 25.5468 21.7642 25.5468 21.7242V21.4576ZM26.1601 21.8176L26.2001 22.6709H25.6268L25.6668 21.8042H26.1601" fill="#FFFF00"/>
<path d="M26.1601 21.8176L26.2001 22.6709H25.6268L25.6668 21.8042H26.1601M25.6001 23.8709C25.6001 23.4309 25.9068 23.3109 25.9068 23.3109C25.9068 23.3109 26.2134 23.4442 26.2134 23.8709H25.6001ZM24.8268 22.6709H27.0001C27.0401 22.6709 27.0801 22.7242 27.0801 22.7776C27.0801 22.8176 27.0401 22.8576 27.0001 22.8576H24.8268C24.7868 22.8576 24.7468 22.8176 24.7468 22.7642C24.7468 22.7242 24.7868 22.6842 24.8268 22.6842V22.6709ZM24.8801 22.8709H26.9334C26.9734 22.8709 27.0134 22.9109 27.0134 22.9642C27.0134 23.0176 26.9734 23.0576 26.9334 23.0576H24.8668C24.8134 23.0576 24.7868 23.0176 24.7868 22.9642C24.7868 22.9109 24.8134 22.8709 24.8668 22.8709H24.8801ZM25.5468 21.4576H25.7068V21.5642H25.8268V21.4576H26.0001V21.5776H26.1201V21.4442H26.2801V21.7109C26.2801 21.7642 26.2534 21.7909 26.2134 21.7909H25.6268C25.5868 21.7909 25.5468 21.7642 25.5468 21.7242V21.4576Z" stroke="black" stroke-width="0.0666669"/>
<path d="M25.4667 22.2176V22.6709H24.9334V22.2176H25.4667Z" fill="#FFFF00" stroke="black" stroke-width="0.0666669"/>
<path d="M25.4667 22.2176V22.6709H24.9334V22.2176H25.4667Z" fill="#FFFF00" stroke="black" stroke-width="0.0666669"/>
<path d="M24.8401 21.8709H25.0001V22.0042H25.1201V21.8709H25.2801V22.0042H25.4001V21.8709H25.5601V22.1376C25.5601 22.1909 25.5334 22.2176 25.4934 22.2176H24.9201C24.8989 22.2176 24.8785 22.2091 24.8635 22.1941C24.8485 22.1791 24.8401 22.1588 24.8401 22.1376V21.8709Z" fill="#FFFF00" stroke="black" stroke-width="0.0666669"/>
<path d="M24.8401 21.8709H25.0001V22.0042H25.1201V21.8709H25.2801V22.0042H25.4001V21.8709H25.5601V22.1376C25.5601 22.1909 25.5334 22.2176 25.4934 22.2176H24.9201C24.8989 22.2176 24.8785 22.2091 24.8635 22.1941C24.8485 22.1791 24.8401 22.1588 24.8401 22.1376V21.8709Z" fill="#FFFF00" stroke="black" stroke-width="0.0666669"/>
<path d="M25.8534 22.0842C25.8534 22.0042 25.9734 22.0042 25.9734 22.0842V22.2976H25.8534V22.0842Z" fill="black"/>
<path d="M25.1468 22.3776C25.1468 22.2976 25.2534 22.2976 25.2534 22.3776V22.5376H25.1468V22.3776Z" fill="black"/>
<path d="M25.1468 22.3776C25.1468 22.2976 25.2534 22.2976 25.2534 22.3776V22.5376H25.1468V22.3776Z" fill="black"/>
<path d="M25.3601 23.9242C25.3734 23.1909 25.8934 23.0176 25.8934 23.0176C25.9067 23.0176 26.4667 23.2042 26.4667 23.9376H25.3601" fill="#FFFF00"/>
<path d="M24.9068 23.0309L24.8134 23.8709H25.3734C25.3734 23.1776 25.9068 23.0709 25.9068 23.0709C25.9201 23.0709 26.4401 23.2176 26.4534 23.8709H27.0134L26.9068 23.0176H24.9068V23.0309ZM24.7734 23.8842H27.0401C27.0801 23.8842 27.1201 23.9242 27.1201 23.9776C27.1201 24.0442 27.0801 24.0842 27.0401 24.0842H24.7734C24.7334 24.0842 24.6934 24.0442 24.6934 23.9776C24.6934 23.9242 24.7334 23.8842 24.7868 23.8842H24.7734Z" fill="#FFFF00" stroke="black" stroke-width="0.0666669"/>
<path d="M25.6001 23.8709C25.6001 23.4309 25.9068 23.3109 25.9068 23.3109C25.9068 23.3109 26.2134 23.4442 26.2134 23.8709H25.6001ZM24.8268 22.6709H27.0001C27.0401 22.6709 27.0801 22.7242 27.0801 22.7776C27.0801 22.8176 27.0401 22.8576 27.0001 22.8576H24.8268C24.7868 22.8576 24.7468 22.8176 24.7468 22.7642C24.7468 22.7242 24.7868 22.6842 24.8268 22.6842V22.6709ZM24.8801 22.8709H26.9334C26.9734 22.8709 27.0134 22.9109 27.0134 22.9642C27.0134 23.0176 26.9734 23.0576 26.9334 23.0576H24.8668C24.8134 23.0576 24.7868 23.0176 24.7868 22.9642C24.7868 22.9109 24.8134 22.8709 24.8668 22.8709H24.8801ZM25.5468 21.4576H25.7068V21.5642H25.8268V21.4576H26.0001V21.5776H26.1201V21.4442H26.2801V21.7109C26.2801 21.7642 26.2534 21.7909 26.2134 21.7909H25.6268C25.5868 21.7909 25.5468 21.7642 25.5468 21.7242V21.4576ZM26.1601 21.8176L26.2001 22.6709H25.6268L25.6668 21.8042H26.1601" fill="#FFFF00"/>
<path d="M26.1601 21.8176L26.2001 22.6709H25.6268L25.6668 21.8042H26.1601M25.6001 23.8709C25.6001 23.4309 25.9068 23.3109 25.9068 23.3109C25.9068 23.3109 26.2134 23.4442 26.2134 23.8709H25.6001ZM24.8268 22.6709H27.0001C27.0401 22.6709 27.0801 22.7242 27.0801 22.7776C27.0801 22.8176 27.0401 22.8576 27.0001 22.8576H24.8268C24.7868 22.8576 24.7468 22.8176 24.7468 22.7642C24.7468 22.7242 24.7868 22.6842 24.8268 22.6842V22.6709ZM24.8801 22.8709H26.9334C26.9734 22.8709 27.0134 22.9109 27.0134 22.9642C27.0134 23.0176 26.9734 23.0576 26.9334 23.0576H24.8668C24.8134 23.0576 24.7868 23.0176 24.7868 22.9642C24.7868 22.9109 24.8134 22.8709 24.8668 22.8709H24.8801ZM25.5468 21.4576H25.7068V21.5642H25.8268V21.4576H26.0001V21.5776H26.1201V21.4442H26.2801V21.7109C26.2801 21.7642 26.2534 21.7909 26.2134 21.7909H25.6268C25.5868 21.7909 25.5468 21.7642 25.5468 21.7242V21.4576Z" stroke="black" stroke-width="0.0666669"/>
<path d="M25.4667 22.2176V22.6709H24.9334V22.2176H25.4667Z" fill="#FFFF00" stroke="black" stroke-width="0.0666669"/>
<path d="M25.4667 22.2176V22.6709H24.9334V22.2176H25.4667Z" fill="#FFFF00" stroke="black" stroke-width="0.0666669"/>
<path d="M24.8401 21.8709H25.0001V22.0042H25.1201V21.8709H25.2801V22.0042H25.4001V21.8709H25.5601V22.1376C25.5601 22.1909 25.5334 22.2176 25.4934 22.2176H24.9201C24.8989 22.2176 24.8785 22.2091 24.8635 22.1941C24.8485 22.1791 24.8401 22.1588 24.8401 22.1376V21.8709Z" fill="#FFFF00" stroke="black" stroke-width="0.0666669"/>
<path d="M24.8401 21.8709H25.0001V22.0042H25.1201V21.8709H25.2801V22.0042H25.4001V21.8709H25.5601V22.1376C25.5601 22.1909 25.5334 22.2176 25.4934 22.2176H24.9201C24.8989 22.2176 24.8785 22.2091 24.8635 22.1941C24.8485 22.1791 24.8401 22.1588 24.8401 22.1376V21.8709Z" fill="#FFFF00" stroke="black" stroke-width="0.0666669"/>
<path d="M25.8534 22.0842C25.8534 22.0042 25.9734 22.0042 25.9734 22.0842V22.2976H25.8534V22.0842Z" fill="black"/>
<path d="M25.1468 22.3776C25.1468 22.2976 25.2534 22.2976 25.2534 22.3776V22.5376H25.1468V22.3776Z" fill="black"/>
<path d="M25.1468 22.3776C25.1468 22.2976 25.2534 22.2976 25.2534 22.3776V22.5376H25.1468V22.3776Z" fill="black"/>
<path d="M27.7663 36.5316C27.2554 36.0054 27.4988 35.5143 27.4988 35.5143C27.5082 35.5048 28.0352 35.239 28.5556 35.7557L27.7758 36.541" fill="#FFFF00"/>
<path d="M26.813 36.2238L27.3433 36.8819L27.7379 36.4845C27.2459 35.996 27.546 35.5424 27.546 35.5424C27.5554 35.5329 28.0259 35.2673 28.4989 35.7182L28.8935 35.3208L28.2128 34.7952L26.8036 36.2144L26.813 36.2238ZM27.3246 36.9197L28.9217 35.3113C28.9499 35.2829 29.0065 35.2827 29.0443 35.3203C29.0916 35.3673 29.0918 35.4238 29.0637 35.4522L27.4665 37.0606C27.4383 37.089 27.3817 37.0892 27.3344 37.0422C27.2966 37.0046 27.2964 36.948 27.334 36.9102L27.3246 36.9197Z" fill="#FFFF00" stroke="black" stroke-width="0.0666669"/>
<path d="M27.8976 36.3237C27.5854 36.0136 27.7163 35.7115 27.7163 35.7115C27.7163 35.7115 28.027 35.5878 28.3298 35.8885L27.8976 36.3237ZM26.5012 36.0269L28.0326 34.4847C28.0608 34.4563 28.1268 34.4655 28.1647 34.5031C28.193 34.5313 28.1932 34.5879 28.165 34.6162L26.6336 36.1584C26.6054 36.1868 26.5489 36.187 26.511 36.1494C26.4827 36.1212 26.4825 36.0646 26.5106 36.0362L26.5012 36.0269ZM26.6807 36.1299L28.1275 34.6729C28.1557 34.6446 28.2123 34.6444 28.2501 34.6819C28.288 34.7195 28.2882 34.7761 28.26 34.8045L26.8037 36.2709C26.7662 36.3088 26.719 36.2995 26.6811 36.2619C26.6433 36.2243 26.6337 36.1772 26.6713 36.1394L26.6807 36.1299ZM26.1476 34.661L26.2603 34.5475L26.336 34.6226L26.4206 34.5375L26.3449 34.4623L26.467 34.3393L26.5522 34.4239L26.6367 34.3387L26.5421 34.2448L26.6548 34.1313L26.8441 34.3192C26.8819 34.3567 26.882 34.3944 26.8539 34.4228L26.4405 34.8391C26.4123 34.8675 26.3652 34.8771 26.3368 34.8489L26.1476 34.661ZM26.8352 34.4795L27.4689 35.0524L27.0649 35.4592L26.4781 34.8201L26.8257 34.4701" fill="#FFFF00"/>
<path d="M26.8352 34.4795L27.4689 35.0524L27.0649 35.4592L26.4781 34.8201L26.8257 34.4701M27.8976 36.3237C27.5854 36.0136 27.7163 35.7115 27.7163 35.7115C27.7163 35.7115 28.027 35.5878 28.3298 35.8885L27.8976 36.3237ZM26.5012 36.0269L28.0326 34.4847C28.0608 34.4563 28.1268 34.4655 28.1647 34.5031C28.193 34.5313 28.1932 34.5879 28.165 34.6162L26.6336 36.1584C26.6054 36.1868 26.5489 36.187 26.511 36.1494C26.4827 36.1212 26.4825 36.0646 26.5106 36.0362L26.5012 36.0269ZM26.6807 36.1299L28.1275 34.6729C28.1557 34.6446 28.2123 34.6444 28.2501 34.6819C28.288 34.7195 28.2882 34.7761 28.26 34.8045L26.8037 36.2709C26.7662 36.3088 26.719 36.2995 26.6811 36.2619C26.6433 36.2243 26.6337 36.1772 26.6713 36.1394L26.6807 36.1299ZM26.1476 34.661L26.2603 34.5475L26.336 34.6226L26.4206 34.5375L26.3449 34.4623L26.467 34.3393L26.5522 34.4239L26.6367 34.3387L26.5421 34.2448L26.6548 34.1313L26.8441 34.3192C26.8819 34.3567 26.882 34.3944 26.8539 34.4228L26.4405 34.8391C26.4123 34.8675 26.3652 34.8771 26.3368 34.8489L26.1476 34.661Z" stroke="black" stroke-width="0.0666669"/>
<path d="M26.6305 35.2533L26.9522 35.5727L26.5764 35.9512L26.2547 35.6317L26.6305 35.2533Z" fill="#FFFF00" stroke="black" stroke-width="0.0666669"/>
<path d="M26.6305 35.2533L26.9522 35.5727L26.5764 35.9512L26.2547 35.6317L26.6305 35.2533Z" fill="#FFFF00" stroke="black" stroke-width="0.0666669"/>
<path d="M25.9429 35.4537L26.0557 35.3402L26.1503 35.4341L26.2348 35.349L26.1402 35.255L26.253 35.1415L26.3476 35.2354L26.4321 35.1503L26.3375 35.0563L26.4503 34.9428L26.6395 35.1307C26.6773 35.1683 26.6775 35.206 26.6493 35.2344L26.2453 35.6412C26.2303 35.6563 26.21 35.6647 26.1888 35.6648C26.1676 35.6649 26.1472 35.6565 26.1322 35.6416L25.9429 35.4537Z" fill="#FFFF00" stroke="black" stroke-width="0.0666669"/>
<path d="M25.9429 35.4537L26.0557 35.3402L26.1503 35.4341L26.2348 35.349L26.1402 35.255L26.253 35.1415L26.3476 35.2354L26.4321 35.1503L26.3375 35.0563L26.4503 34.9428L26.6395 35.1307C26.6773 35.1683 26.6775 35.206 26.6493 35.2344L26.2453 35.6412C26.2303 35.6563 26.21 35.6647 26.1888 35.6648C26.1676 35.6649 26.1472 35.6565 26.1322 35.6416L25.9429 35.4537Z" fill="#FFFF00" stroke="black" stroke-width="0.0666669"/>
<path d="M26.8084 34.885C26.7516 34.8286 26.8361 34.7435 26.8929 34.7998L27.0443 34.9501L26.9597 35.0353L26.8084 34.885Z" fill="black"/>
<path d="M26.5185 35.5931C26.4618 35.5367 26.5369 35.461 26.5937 35.5174L26.7072 35.6302L26.6321 35.7058L26.5185 35.5931Z" fill="black"/>
<path d="M26.5185 35.5931C26.4618 35.5367 26.5369 35.461 26.5937 35.5174L26.7072 35.6302L26.6321 35.7058L26.5185 35.5931Z" fill="black"/>
<path d="M25.3601 23.9242C25.3734 23.1909 25.8934 23.0176 25.8934 23.0176C25.9067 23.0176 26.4667 23.2042 26.4667 23.9376H25.3601" fill="#FFFF00"/>
<path d="M24.9068 23.0309L24.8134 23.8709H25.3734C25.3734 23.1776 25.9068 23.0709 25.9068 23.0709C25.9201 23.0709 26.4401 23.2176 26.4534 23.8709H27.0134L26.9068 23.0176H24.9068V23.0309ZM24.7734 23.8842H27.0401C27.0801 23.8842 27.1201 23.9242 27.1201 23.9776C27.1201 24.0442 27.0801 24.0842 27.0401 24.0842H24.7734C24.7334 24.0842 24.6934 24.0442 24.6934 23.9776C24.6934 23.9242 24.7334 23.8842 24.7868 23.8842H24.7734Z" fill="#FFFF00" stroke="black" stroke-width="0.0666669"/>
<path d="M25.6001 23.8709C25.6001 23.4309 25.9068 23.3109 25.9068 23.3109C25.9068 23.3109 26.2134 23.4442 26.2134 23.8709H25.6001ZM24.8268 22.6709H27.0001C27.0401 22.6709 27.0801 22.7242 27.0801 22.7776C27.0801 22.8176 27.0401 22.8576 27.0001 22.8576H24.8268C24.7868 22.8576 24.7468 22.8176 24.7468 22.7642C24.7468 22.7242 24.7868 22.6842 24.8268 22.6842V22.6709ZM24.8801 22.8709H26.9334C26.9734 22.8709 27.0134 22.9109 27.0134 22.9642C27.0134 23.0176 26.9734 23.0576 26.9334 23.0576H24.8668C24.8134 23.0576 24.7868 23.0176 24.7868 22.9642C24.7868 22.9109 24.8134 22.8709 24.8668 22.8709H24.8801ZM25.5468 21.4576H25.7068V21.5642H25.8268V21.4576H26.0001V21.5776H26.1201V21.4442H26.2801V21.7109C26.2801 21.7642 26.2534 21.7909 26.2134 21.7909H25.6268C25.5868 21.7909 25.5468 21.7642 25.5468 21.7242V21.4576ZM26.1601 21.8176L26.2001 22.6709H25.6268L25.6668 21.8042H26.1601" fill="#FFFF00"/>
<path d="M26.1601 21.8176L26.2001 22.6709H25.6268L25.6668 21.8042H26.1601M25.6001 23.8709C25.6001 23.4309 25.9068 23.3109 25.9068 23.3109C25.9068 23.3109 26.2134 23.4442 26.2134 23.8709H25.6001ZM24.8268 22.6709H27.0001C27.0401 22.6709 27.0801 22.7242 27.0801 22.7776C27.0801 22.8176 27.0401 22.8576 27.0001 22.8576H24.8268C24.7868 22.8576 24.7468 22.8176 24.7468 22.7642C24.7468 22.7242 24.7868 22.6842 24.8268 22.6842V22.6709ZM24.8801 22.8709H26.9334C26.9734 22.8709 27.0134 22.9109 27.0134 22.9642C27.0134 23.0176 26.9734 23.0576 26.9334 23.0576H24.8668C24.8134 23.0576 24.7868 23.0176 24.7868 22.9642C24.7868 22.9109 24.8134 22.8709 24.8668 22.8709H24.8801ZM25.5468 21.4576H25.7068V21.5642H25.8268V21.4576H26.0001V21.5776H26.1201V21.4442H26.2801V21.7109C26.2801 21.7642 26.2534 21.7909 26.2134 21.7909H25.6268C25.5868 21.7909 25.5468 21.7642 25.5468 21.7242V21.4576Z" stroke="black" stroke-width="0.0666669"/>
<path d="M25.4667 22.2176V22.6709H24.9334V22.2176H25.4667Z" fill="#FFFF00" stroke="black" stroke-width="0.0666669"/>
<path d="M25.4667 22.2176V22.6709H24.9334V22.2176H25.4667Z" fill="#FFFF00" stroke="black" stroke-width="0.0666669"/>
<path d="M24.8401 21.8709H25.0001V22.0042H25.1201V21.8709H25.2801V22.0042H25.4001V21.8709H25.5601V22.1376C25.5601 22.1909 25.5334 22.2176 25.4934 22.2176H24.9201C24.8989 22.2176 24.8785 22.2091 24.8635 22.1941C24.8485 22.1791 24.8401 22.1588 24.8401 22.1376V21.8709Z" fill="#FFFF00" stroke="black" stroke-width="0.0666669"/>
<path d="M24.8401 21.8709H25.0001V22.0042H25.1201V21.8709H25.2801V22.0042H25.4001V21.8709H25.5601V22.1376C25.5601 22.1909 25.5334 22.2176 25.4934 22.2176H24.9201C24.8989 22.2176 24.8785 22.2091 24.8635 22.1941C24.8485 22.1791 24.8401 22.1588 24.8401 22.1376V21.8709Z" fill="#FFFF00" stroke="black" stroke-width="0.0666669"/>
<path d="M25.8534 22.0842C25.8534 22.0042 25.9734 22.0042 25.9734 22.0842V22.2976H25.8534V22.0842Z" fill="black"/>
<path d="M25.1468 22.3776C25.1468 22.2976 25.2534 22.2976 25.2534 22.3776V22.5376H25.1468V22.3776Z" fill="black"/>
<path d="M25.1468 22.3776C25.1468 22.2976 25.2534 22.2976 25.2534 22.3776V22.5376H25.1468V22.3776Z" fill="black"/>
<path d="M38.6135 23.9242C38.6001 23.1909 38.0801 23.0176 38.0801 23.0176C38.0668 23.0176 37.5068 23.2042 37.5068 23.9376H38.6135" fill="#FFFF00"/>
<path d="M39.0668 23.0309L39.1601 23.8709H38.6001C38.6001 23.1776 38.0668 23.0709 38.0668 23.0709C38.0534 23.0709 37.5334 23.2176 37.5201 23.8709H36.9601L37.0668 23.0176H39.0668V23.0309ZM39.2001 23.8842H36.9334C36.8934 23.8842 36.8534 23.9242 36.8534 23.9776C36.8534 24.0442 36.8934 24.0842 36.9334 24.0842H39.2001C39.2401 24.0842 39.2801 24.0442 39.2801 23.9776C39.2801 23.9242 39.2401 23.8842 39.1868 23.8842H39.2001Z" fill="#FFFF00" stroke="black" stroke-width="0.0666669"/>
<path d="M38.3735 23.8709C38.3735 23.4309 38.0668 23.3109 38.0668 23.3109C38.0668 23.3109 37.7601 23.4442 37.7601 23.8709H38.3735ZM39.1468 22.6709H36.9735C36.9335 22.6709 36.8935 22.7242 36.8935 22.7776C36.8935 22.8176 36.9335 22.8576 36.9735 22.8576H39.1468C39.1868 22.8576 39.2268 22.8176 39.2268 22.7642C39.2268 22.7242 39.1868 22.6842 39.1468 22.6842V22.6709ZM39.0935 22.8709H37.0401C37.0001 22.8709 36.9601 22.9109 36.9601 22.9642C36.9601 23.0176 37.0001 23.0576 37.0401 23.0576H39.1068C39.1601 23.0576 39.1868 23.0176 39.1868 22.9642C39.1868 22.9109 39.1601 22.8709 39.1068 22.8709H39.0935ZM38.4268 21.4576H38.2668V21.5642H38.1468V21.4576H37.9735V21.5776H37.8535V21.4442H37.6935V21.7109C37.6935 21.7642 37.7201 21.7909 37.7601 21.7909H38.3468C38.3868 21.7909 38.4268 21.7642 38.4268 21.7242V21.4576ZM37.8135 21.8176L37.7735 22.6709H38.3468L38.3068 21.8042H37.8135" fill="#FFFF00"/>
<path d="M37.8135 21.8176L37.7735 22.6709H38.3468L38.3068 21.8042H37.8135M38.3735 23.8709C38.3735 23.4309 38.0668 23.3109 38.0668 23.3109C38.0668 23.3109 37.7601 23.4442 37.7601 23.8709H38.3735ZM39.1468 22.6709H36.9735C36.9335 22.6709 36.8935 22.7242 36.8935 22.7776C36.8935 22.8176 36.9335 22.8576 36.9735 22.8576H39.1468C39.1868 22.8576 39.2268 22.8176 39.2268 22.7642C39.2268 22.7242 39.1868 22.6842 39.1468 22.6842V22.6709ZM39.0935 22.8709H37.0401C37.0001 22.8709 36.9601 22.9109 36.9601 22.9642C36.9601 23.0176 37.0001 23.0576 37.0401 23.0576H39.1068C39.1601 23.0576 39.1868 23.0176 39.1868 22.9642C39.1868 22.9109 39.1601 22.8709 39.1068 22.8709H39.0935ZM38.4268 21.4576H38.2668V21.5642H38.1468V21.4576H37.9735V21.5776H37.8535V21.4442H37.6935V21.7109C37.6935 21.7642 37.7201 21.7909 37.7601 21.7909H38.3468C38.3868 21.7909 38.4268 21.7642 38.4268 21.7242V21.4576Z" stroke="black" stroke-width="0.0666669"/>
<path d="M38.5068 22.2176V22.6709H39.0401V22.2176H38.5068Z" fill="#FFFF00" stroke="black" stroke-width="0.0666669"/>
<path d="M38.5068 22.2176V22.6709H39.0401V22.2176H38.5068Z" fill="#FFFF00" stroke="black" stroke-width="0.0666669"/>
<path d="M39.1335 21.8709H38.9735V22.0042H38.8535V21.8709H38.6935V22.0042H38.5735V21.8709H38.4135V22.1376C38.4135 22.1909 38.4401 22.2176 38.4801 22.2176H39.0535C39.0747 22.2176 39.095 22.2091 39.11 22.1941C39.125 22.1791 39.1335 22.1588 39.1335 22.1376V21.8709Z" fill="#FFFF00" stroke="black" stroke-width="0.0666669"/>
<path d="M39.1335 21.8709H38.9735V22.0042H38.8535V21.8709H38.6935V22.0042H38.5735V21.8709H38.4135V22.1376C38.4135 22.1909 38.4401 22.2176 38.4801 22.2176H39.0535C39.0747 22.2176 39.095 22.2091 39.11 22.1941C39.125 22.1791 39.1335 22.1588 39.1335 22.1376V21.8709Z" fill="#FFFF00" stroke="black" stroke-width="0.0666669"/>
<path d="M38.1201 22.0842C38.1201 22.0042 38.0001 22.0042 38.0001 22.0842V22.2976H38.1201V22.0842Z" fill="black"/>
<path d="M38.8268 22.3776C38.8268 22.2976 38.7201 22.2976 38.7201 22.3776V22.5376H38.8268V22.3776Z" fill="black"/>
<path d="M38.8268 22.3776C38.8268 22.2976 38.7201 22.2976 38.7201 22.3776V22.5376H38.8268V22.3776Z" fill="black"/>
<path d="M38.6135 23.9242C38.6001 23.1909 38.0801 23.0176 38.0801 23.0176C38.0668 23.0176 37.5068 23.2042 37.5068 23.9376H38.6135" fill="#FFFF00"/>
<path d="M39.0668 23.0309L39.1601 23.8709H38.6001C38.6001 23.1776 38.0668 23.0709 38.0668 23.0709C38.0534 23.0709 37.5334 23.2176 37.5201 23.8709H36.9601L37.0668 23.0176H39.0668V23.0309ZM39.2001 23.8842H36.9334C36.8934 23.8842 36.8534 23.9242 36.8534 23.9776C36.8534 24.0442 36.8934 24.0842 36.9334 24.0842H39.2001C39.2401 24.0842 39.2801 24.0442 39.2801 23.9776C39.2801 23.9242 39.2401 23.8842 39.1868 23.8842H39.2001Z" fill="#FFFF00" stroke="black" stroke-width="0.0666669"/>
<path d="M38.3735 23.8709C38.3735 23.4309 38.0668 23.3109 38.0668 23.3109C38.0668 23.3109 37.7601 23.4442 37.7601 23.8709H38.3735ZM39.1468 22.6709H36.9735C36.9335 22.6709 36.8935 22.7242 36.8935 22.7776C36.8935 22.8176 36.9335 22.8576 36.9735 22.8576H39.1468C39.1868 22.8576 39.2268 22.8176 39.2268 22.7642C39.2268 22.7242 39.1868 22.6842 39.1468 22.6842V22.6709ZM39.0935 22.8709H37.0401C37.0001 22.8709 36.9601 22.9109 36.9601 22.9642C36.9601 23.0176 37.0001 23.0576 37.0401 23.0576H39.1068C39.1601 23.0576 39.1868 23.0176 39.1868 22.9642C39.1868 22.9109 39.1601 22.8709 39.1068 22.8709H39.0935ZM38.4268 21.4576H38.2668V21.5642H38.1468V21.4576H37.9735V21.5776H37.8535V21.4442H37.6935V21.7109C37.6935 21.7642 37.7201 21.7909 37.7601 21.7909H38.3468C38.3868 21.7909 38.4268 21.7642 38.4268 21.7242V21.4576ZM37.8135 21.8176L37.7735 22.6709H38.3468L38.3068 21.8042H37.8135" fill="#FFFF00"/>
<path d="M37.8135 21.8176L37.7735 22.6709H38.3468L38.3068 21.8042H37.8135M38.3735 23.8709C38.3735 23.4309 38.0668 23.3109 38.0668 23.3109C38.0668 23.3109 37.7601 23.4442 37.7601 23.8709H38.3735ZM39.1468 22.6709H36.9735C36.9335 22.6709 36.8935 22.7242 36.8935 22.7776C36.8935 22.8176 36.9335 22.8576 36.9735 22.8576H39.1468C39.1868 22.8576 39.2268 22.8176 39.2268 22.7642C39.2268 22.7242 39.1868 22.6842 39.1468 22.6842V22.6709ZM39.0935 22.8709H37.0401C37.0001 22.8709 36.9601 22.9109 36.9601 22.9642C36.9601 23.0176 37.0001 23.0576 37.0401 23.0576H39.1068C39.1601 23.0576 39.1868 23.0176 39.1868 22.9642C39.1868 22.9109 39.1601 22.8709 39.1068 22.8709H39.0935ZM38.4268 21.4576H38.2668V21.5642H38.1468V21.4576H37.9735V21.5776H37.8535V21.4442H37.6935V21.7109C37.6935 21.7642 37.7201 21.7909 37.7601 21.7909H38.3468C38.3868 21.7909 38.4268 21.7642 38.4268 21.7242V21.4576Z" stroke="black" stroke-width="0.0666669"/>
<path d="M38.5068 22.2176V22.6709H39.0401V22.2176H38.5068Z" fill="#FFFF00" stroke="black" stroke-width="0.0666669"/>
<path d="M38.5068 22.2176V22.6709H39.0401V22.2176H38.5068Z" fill="#FFFF00" stroke="black" stroke-width="0.0666669"/>
<path d="M39.1335 21.8709H38.9735V22.0042H38.8535V21.8709H38.6935V22.0042H38.5735V21.8709H38.4135V22.1376C38.4135 22.1909 38.4401 22.2176 38.4801 22.2176H39.0535C39.0747 22.2176 39.095 22.2091 39.11 22.1941C39.125 22.1791 39.1335 22.1588 39.1335 22.1376V21.8709Z" fill="#FFFF00" stroke="black" stroke-width="0.0666669"/>
<path d="M39.1335 21.8709H38.9735V22.0042H38.8535V21.8709H38.6935V22.0042H38.5735V21.8709H38.4135V22.1376C38.4135 22.1909 38.4401 22.2176 38.4801 22.2176H39.0535C39.0747 22.2176 39.095 22.2091 39.11 22.1941C39.125 22.1791 39.1335 22.1588 39.1335 22.1376V21.8709Z" fill="#FFFF00" stroke="black" stroke-width="0.0666669"/>
<path d="M38.1201 22.0842C38.1201 22.0042 38.0001 22.0042 38.0001 22.0842V22.2976H38.1201V22.0842Z" fill="black"/>
<path d="M38.8268 22.3776C38.8268 22.2976 38.7201 22.2976 38.7201 22.3776V22.5376H38.8268V22.3776Z" fill="black"/>
<path d="M38.8268 22.3776C38.8268 22.2976 38.7201 22.2976 38.7201 22.3776V22.5376H38.8268V22.3776Z" fill="black"/>
<path d="M36.2072 36.5316C36.7182 36.0054 36.4747 35.5143 36.4747 35.5143C36.4654 35.5048 35.9383 35.239 35.418 35.7557L36.1977 36.541" fill="#FFFF00"/>
<path d="M37.1605 36.2238L36.6303 36.8819L36.2357 36.4845C36.7276 35.996 36.4275 35.5424 36.4275 35.5424C36.4181 35.5329 35.9476 35.2673 35.4747 35.7182L35.0801 35.3208L35.7607 34.7952L37.17 36.2144L37.1605 36.2238ZM36.649 36.9197L35.0518 35.3113C35.0236 35.2829 34.967 35.2827 34.9292 35.3203C34.8819 35.3673 34.8817 35.4238 34.9099 35.4522L36.5071 37.0606C36.5352 37.089 36.5918 37.0892 36.6391 37.0422C36.677 37.0046 36.6772 36.948 36.6396 36.9102L36.649 36.9197Z" fill="#FFFF00" stroke="black" stroke-width="0.0666669"/>
<path d="M36.0759 36.3237C36.3881 36.0136 36.2572 35.7115 36.2572 35.7115C36.2572 35.7115 35.9465 35.5878 35.6437 35.8885L36.0759 36.3237ZM37.4723 36.0269L35.9409 34.4847C35.9127 34.4563 35.8467 34.4655 35.8089 34.5031C35.7805 34.5313 35.7803 34.5879 35.8085 34.6163L37.3399 36.1584C37.3681 36.1868 37.4246 36.187 37.4625 36.1494C37.4909 36.1212 37.4911 36.0646 37.4629 36.0363L37.4723 36.0269ZM37.2928 36.1299L35.846 34.673C35.8178 34.6446 35.7612 34.6444 35.7234 34.682C35.6855 34.7195 35.6853 34.7761 35.7135 34.8045L37.1698 36.2709C37.2074 36.3088 37.2545 36.2995 37.2924 36.2619C37.3302 36.2244 37.3398 36.1772 37.3022 36.1394L37.2928 36.1299ZM37.8259 34.661L37.7132 34.5475L37.6375 34.6226L37.553 34.5375L37.6286 34.4623L37.5065 34.3393L37.4214 34.4239L37.3368 34.3387L37.4314 34.2448L37.3187 34.1313L37.1294 34.3192C37.0916 34.3567 37.0915 34.3945 37.1197 34.4228L37.533 34.8391C37.5612 34.8675 37.6083 34.8771 37.6367 34.8489L37.8259 34.661ZM37.1383 34.4795L36.5046 35.0524L36.9086 35.4592L37.4954 34.8201L37.1478 34.4701" fill="#FFFF00"/>
<path d="M37.1383 34.4795L36.5046 35.0524L36.9086 35.4592L37.4954 34.8201L37.1478 34.4701M36.0759 36.3237C36.3881 36.0136 36.2572 35.7115 36.2572 35.7115C36.2572 35.7115 35.9465 35.5878 35.6437 35.8885L36.0759 36.3237ZM37.4723 36.0269L35.9409 34.4847C35.9127 34.4563 35.8467 34.4655 35.8089 34.5031C35.7805 34.5313 35.7803 34.5879 35.8085 34.6163L37.3399 36.1584C37.3681 36.1868 37.4246 36.187 37.4625 36.1494C37.4909 36.1212 37.4911 36.0646 37.4629 36.0363L37.4723 36.0269ZM37.2928 36.1299L35.846 34.673C35.8178 34.6446 35.7612 34.6444 35.7234 34.682C35.6855 34.7195 35.6853 34.7761 35.7135 34.8045L37.1698 36.2709C37.2074 36.3088 37.2545 36.2995 37.2924 36.2619C37.3302 36.2244 37.3398 36.1772 37.3022 36.1394L37.2928 36.1299ZM37.8259 34.661L37.7132 34.5475L37.6375 34.6226L37.553 34.5375L37.6286 34.4623L37.5065 34.3393L37.4214 34.4239L37.3368 34.3387L37.4314 34.2448L37.3187 34.1313L37.1294 34.3192C37.0916 34.3567 37.0915 34.3945 37.1197 34.4228L37.533 34.8391C37.5612 34.8675 37.6083 34.8771 37.6367 34.8489L37.8259 34.661Z" stroke="black" stroke-width="0.0666669"/>
<path d="M37.3431 35.2533L37.0214 35.5727L37.3972 35.9512L37.7189 35.6317L37.3431 35.2533Z" fill="#FFFF00" stroke="black" stroke-width="0.0666669"/>
<path d="M37.3431 35.2533L37.0214 35.5727L37.3972 35.9512L37.7189 35.6317L37.3431 35.2533Z" fill="#FFFF00" stroke="black" stroke-width="0.0666669"/>
<path d="M38.0306 35.4537L37.9179 35.3402L37.8233 35.4341L37.7387 35.349L37.8333 35.255L37.7206 35.1415L37.626 35.2354L37.5414 35.1503L37.636 35.0563L37.5233 34.9428L37.3341 35.1307C37.2962 35.1683 37.2961 35.206 37.3243 35.2344L37.7283 35.6412C37.7432 35.6563 37.7635 35.6648 37.7847 35.6648C37.806 35.6649 37.8263 35.6565 37.8414 35.6416L38.0306 35.4537Z" fill="#FFFF00" stroke="black" stroke-width="0.0666669"/>
<path d="M38.0306 35.4537L37.9179 35.3402L37.8233 35.4341L37.7387 35.349L37.8333 35.255L37.7206 35.1415L37.626 35.2354L37.5414 35.1503L37.636 35.0563L37.5233 34.9428L37.3341 35.1307C37.2962 35.1683 37.2961 35.206 37.3243 35.2344L37.7283 35.6412C37.7432 35.6563 37.7635 35.6648 37.7847 35.6648C37.806 35.6649 37.8263 35.6565 37.8414 35.6416L38.0306 35.4537Z" fill="#FFFF00" stroke="black" stroke-width="0.0666669"/>
<path d="M37.1652 34.885C37.222 34.8286 37.1374 34.7435 37.0806 34.7998L36.9293 34.9502L37.0138 35.0353L37.1652 34.885Z" fill="black"/>
<path d="M37.455 35.5931C37.5118 35.5367 37.4366 35.461 37.3798 35.5174L37.2663 35.6302L37.3415 35.7058L37.455 35.5931Z" fill="black"/>
<path d="M37.455 35.5931C37.5118 35.5367 37.4366 35.461 37.3798 35.5174L37.2663 35.6302L37.3415 35.7058L37.455 35.5931Z" fill="black"/>
<path d="M31.0134 30.3242C31.011 30.6057 31.1159 30.8774 31.3068 31.0842C31.3958 31.1838 31.5047 31.2637 31.6263 31.3188C31.748 31.3739 31.8799 31.403 32.0134 31.4042C32.2934 31.4042 32.5468 31.2709 32.7201 31.0842C32.911 30.8774 33.0159 30.6057 33.0134 30.3242V28.8842H31.0134V30.3242Z" fill="#003399"/>
<path d="M31.4801 29.6309C31.5905 29.6309 31.6801 29.5414 31.6801 29.4309C31.6801 29.3205 31.5905 29.2309 31.4801 29.2309C31.3696 29.2309 31.2801 29.3205 31.2801 29.4309C31.2801 29.5414 31.3696 29.6309 31.4801 29.6309Z" fill="white"/>
<path d="M32.5868 29.6309C32.6972 29.6309 32.7868 29.5414 32.7868 29.4309C32.7868 29.3205 32.6972 29.2309 32.5868 29.2309C32.4763 29.2309 32.3868 29.3205 32.3868 29.4309C32.3868 29.5414 32.4763 29.6309 32.5868 29.6309Z" fill="white"/>
<path d="M32.0268 30.1642C32.1372 30.1642 32.2268 30.0747 32.2268 29.9642C32.2268 29.8538 32.1372 29.7642 32.0268 29.7642C31.9163 29.7642 31.8268 29.8538 31.8268 29.9642C31.8268 30.0747 31.9163 30.1642 32.0268 30.1642Z" fill="white"/>
<path d="M31.4801 30.7242C31.5905 30.7242 31.6801 30.6347 31.6801 30.5242C31.6801 30.4138 31.5905 30.3242 31.4801 30.3242C31.3696 30.3242 31.2801 30.4138 31.2801 30.5242C31.2801 30.6347 31.3696 30.7242 31.4801 30.7242Z" fill="white"/>
<path d="M32.5868 30.7242C32.6972 30.7242 32.7868 30.6347 32.7868 30.5242C32.7868 30.4138 32.6972 30.3242 32.5868 30.3242C32.4763 30.3242 32.3868 30.4138 32.3868 30.5242C32.3868 30.6347 32.4763 30.7242 32.5868 30.7242Z" fill="white"/>
<path d="M31.0134 30.3242C31.011 30.6057 31.1159 30.8774 31.3068 31.0842C31.3958 31.1838 31.5047 31.2637 31.6263 31.3188C31.748 31.3739 31.8799 31.403 32.0134 31.4042C32.2934 31.4042 32.5468 31.2709 32.7201 31.0842C32.911 30.8774 33.0159 30.6057 33.0134 30.3242V28.8842H31.0134V30.3242Z" fill="#003399"/>
<path d="M31.4801 29.6309C31.5905 29.6309 31.6801 29.5414 31.6801 29.4309C31.6801 29.3205 31.5905 29.2309 31.4801 29.2309C31.3696 29.2309 31.2801 29.3205 31.2801 29.4309C31.2801 29.5414 31.3696 29.6309 31.4801 29.6309Z" fill="white"/>
<path d="M32.5868 29.6309C32.6972 29.6309 32.7868 29.5414 32.7868 29.4309C32.7868 29.3205 32.6972 29.2309 32.5868 29.2309C32.4763 29.2309 32.3868 29.3205 32.3868 29.4309C32.3868 29.5414 32.4763 29.6309 32.5868 29.6309Z" fill="white"/>
<path d="M32.0268 30.1642C32.1372 30.1642 32.2268 30.0747 32.2268 29.9642C32.2268 29.8538 32.1372 29.7642 32.0268 29.7642C31.9163 29.7642 31.8268 29.8538 31.8268 29.9642C31.8268 30.0747 31.9163 30.1642 32.0268 30.1642Z" fill="white"/>
<path d="M31.4801 30.7242C31.5905 30.7242 31.6801 30.6347 31.6801 30.5242C31.6801 30.4138 31.5905 30.3242 31.4801 30.3242C31.3696 30.3242 31.2801 30.4138 31.2801 30.5242C31.2801 30.6347 31.3696 30.7242 31.4801 30.7242Z" fill="white"/>
<path d="M32.5868 30.7242C32.6972 30.7242 32.7868 30.6347 32.7868 30.5242C32.7868 30.4138 32.6972 30.3242 32.5868 30.3242C32.4763 30.3242 32.3868 30.4138 32.3868 30.5242C32.3868 30.6347 32.4763 30.7242 32.5868 30.7242Z" fill="white"/>
<path d="M31.0134 30.3242C31.011 30.6057 31.1159 30.8774 31.3068 31.0842C31.3958 31.1838 31.5047 31.2637 31.6263 31.3188C31.748 31.3739 31.8799 31.403 32.0134 31.4042C32.2934 31.4042 32.5468 31.2709 32.7201 31.0842C32.911 30.8774 33.0159 30.6057 33.0134 30.3242V28.8842H31.0134V30.3242Z" fill="#003399"/>
<path d="M31.4801 29.6309C31.5905 29.6309 31.6801 29.5414 31.6801 29.4309C31.6801 29.3205 31.5905 29.2309 31.4801 29.2309C31.3696 29.2309 31.2801 29.3205 31.2801 29.4309C31.2801 29.5414 31.3696 29.6309 31.4801 29.6309Z" fill="white"/>
<path d="M32.5868 29.6309C32.6972 29.6309 32.7868 29.5414 32.7868 29.4309C32.7868 29.3205 32.6972 29.2309 32.5868 29.2309C32.4763 29.2309 32.3868 29.3205 32.3868 29.4309C32.3868 29.5414 32.4763 29.6309 32.5868 29.6309Z" fill="white"/>
<path d="M32.0268 30.1642C32.1372 30.1642 32.2268 30.0747 32.2268 29.9642C32.2268 29.8538 32.1372 29.7642 32.0268 29.7642C31.9163 29.7642 31.8268 29.8538 31.8268 29.9642C31.8268 30.0747 31.9163 30.1642 32.0268 30.1642Z" fill="white"/>
<path d="M31.4801 30.7242C31.5905 30.7242 31.6801 30.6347 31.6801 30.5242C31.6801 30.4138 31.5905 30.3242 31.4801 30.3242C31.3696 30.3242 31.2801 30.4138 31.2801 30.5242C31.2801 30.6347 31.3696 30.7242 31.4801 30.7242Z" fill="white"/>
<path d="M32.5868 30.7242C32.6972 30.7242 32.7868 30.6347 32.7868 30.5242C32.7868 30.4138 32.6972 30.3242 32.5868 30.3242C32.4763 30.3242 32.3868 30.4138 32.3868 30.5242C32.3868 30.6347 32.4763 30.7242 32.5868 30.7242Z" fill="white"/>
<path d="M31.0134 30.3242C31.011 30.6057 31.1159 30.8774 31.3068 31.0842C31.3958 31.1838 31.5047 31.2637 31.6263 31.3188C31.748 31.3739 31.8799 31.403 32.0134 31.4042C32.2934 31.4042 32.5468 31.2709 32.7201 31.0842C32.911 30.8774 33.0159 30.6057 33.0134 30.3242V28.8842H31.0134V30.3242Z" fill="#003399"/>
<path d="M31.4801 29.6309C31.5905 29.6309 31.6801 29.5414 31.6801 29.4309C31.6801 29.3205 31.5905 29.2309 31.4801 29.2309C31.3696 29.2309 31.2801 29.3205 31.2801 29.4309C31.2801 29.5414 31.3696 29.6309 31.4801 29.6309Z" fill="white"/>
<path d="M32.5868 29.6309C32.6972 29.6309 32.7868 29.5414 32.7868 29.4309C32.7868 29.3205 32.6972 29.2309 32.5868 29.2309C32.4763 29.2309 32.3868 29.3205 32.3868 29.4309C32.3868 29.5414 32.4763 29.6309 32.5868 29.6309Z" fill="white"/>
<path d="M32.0268 30.1642C32.1372 30.1642 32.2268 30.0747 32.2268 29.9642C32.2268 29.8538 32.1372 29.7642 32.0268 29.7642C31.9163 29.7642 31.8268 29.8538 31.8268 29.9642C31.8268 30.0747 31.9163 30.1642 32.0268 30.1642Z" fill="white"/>
<path d="M31.4801 30.7242C31.5905 30.7242 31.6801 30.6347 31.6801 30.5242C31.6801 30.4138 31.5905 30.3242 31.4801 30.3242C31.3696 30.3242 31.2801 30.4138 31.2801 30.5242C31.2801 30.6347 31.3696 30.7242 31.4801 30.7242Z" fill="white"/>
<path d="M32.5868 30.7242C32.6972 30.7242 32.7868 30.6347 32.7868 30.5242C32.7868 30.4138 32.6972 30.3242 32.5868 30.3242C32.4763 30.3242 32.3868 30.4138 32.3868 30.5242C32.3868 30.6347 32.4763 30.7242 32.5868 30.7242Z" fill="white"/>
<path d="M31.0134 30.3242C31.011 30.6057 31.1159 30.8774 31.3068 31.0842C31.3958 31.1838 31.5047 31.2637 31.6263 31.3188C31.748 31.3739 31.8799 31.403 32.0134 31.4042C32.2934 31.4042 32.5468 31.2709 32.7201 31.0842C32.911 30.8774 33.0159 30.6057 33.0134 30.3242V28.8842H31.0134V30.3242Z" fill="#003399"/>
<path d="M31.4801 29.6309C31.5905 29.6309 31.6801 29.5414 31.6801 29.4309C31.6801 29.3205 31.5905 29.2309 31.4801 29.2309C31.3696 29.2309 31.2801 29.3205 31.2801 29.4309C31.2801 29.5414 31.3696 29.6309 31.4801 29.6309Z" fill="white"/>
<path d="M32.5868 29.6309C32.6972 29.6309 32.7868 29.5414 32.7868 29.4309C32.7868 29.3205 32.6972 29.2309 32.5868 29.2309C32.4763 29.2309 32.3868 29.3205 32.3868 29.4309C32.3868 29.5414 32.4763 29.6309 32.5868 29.6309Z" fill="white"/>
<path d="M32.0268 30.1642C32.1372 30.1642 32.2268 30.0747 32.2268 29.9642C32.2268 29.8538 32.1372 29.7642 32.0268 29.7642C31.9163 29.7642 31.8268 29.8538 31.8268 29.9642C31.8268 30.0747 31.9163 30.1642 32.0268 30.1642Z" fill="white"/>
<path d="M31.4801 30.7242C31.5905 30.7242 31.6801 30.6347 31.6801 30.5242C31.6801 30.4138 31.5905 30.3242 31.4801 30.3242C31.3696 30.3242 31.2801 30.4138 31.2801 30.5242C31.2801 30.6347 31.3696 30.7242 31.4801 30.7242Z" fill="white"/>
<path d="M32.5868 30.7242C32.6972 30.7242 32.7868 30.6347 32.7868 30.5242C32.7868 30.4138 32.6972 30.3242 32.5868 30.3242C32.4763 30.3242 32.3868 30.4138 32.3868 30.5242C32.3868 30.6347 32.4763 30.7242 32.5868 30.7242Z" fill="white"/>
</g>
<defs>
<clipPath id="clip0_1_560">
<rect width="80" height="60" fill="white"/>
</clipPath>
</defs>
</svg>
