<svg width="24" height="20" viewBox="0 0 24 20" fill="none" xmlns="http://www.w3.org/2000/svg">
<path fill-rule="evenodd" clip-rule="evenodd" d="M4 1C1.79086 1 0 2.79086 0 5V15C0 17.2091 1.79086 19 4 19H20C22.2091 19 24 17.2091 24 15V5C24 2.79086 22.2091 1 20 1H4ZM6.39451 14.3164C6.39451 14.8086 6.10057 15.1094 5.62889 15.1094C5.15037 15.1094 4.86326 14.8086 4.86326 14.3164V5.92871C4.86326 5.43652 5.15037 5.13574 5.62889 5.13574H10.414C10.8447 5.13574 11.1318 5.39551 11.1318 5.79883C11.1318 6.20215 10.8379 6.46191 10.414 6.46191H6.39451V9.5791H10.0517C10.4619 9.5791 10.7422 9.83203 10.7422 10.2217C10.7422 10.6182 10.4619 10.8711 10.0517 10.8711H6.39451V14.3164ZM13.8867 14.3369C13.8867 14.8291 13.5859 15.1299 13.1211 15.1299C12.6494 15.1299 12.3554 14.8291 12.3554 14.3369V5.92871C12.3554 5.43652 12.6426 5.13574 13.1211 5.13574H16.1767C18.207 5.13574 19.4717 6.31152 19.4717 8.15039C19.4717 9.46973 18.7744 10.5361 17.5918 10.9531L19.2597 13.8994C19.3828 14.1113 19.4238 14.2549 19.4238 14.4258C19.4238 14.8291 19.0888 15.1299 18.6445 15.1299C18.289 15.1299 18.1045 15 17.8789 14.5967L16.0263 11.2061H13.8867V14.3369ZM13.8867 6.4209V9.96875H16.0332C17.2158 9.96875 17.8926 9.31934 17.8926 8.19141C17.8926 7.09082 17.1748 6.4209 15.9922 6.4209H13.8867Z" fill="black"/>
</svg>
