<svg width="24" height="20" viewBox="0 0 24 20" fill="none" xmlns="http://www.w3.org/2000/svg">
<path fill-rule="evenodd" clip-rule="evenodd" d="M4 1C1.79086 1 0 2.79086 0 5V15C0 17.2091 1.79086 19 4 19H20C22.2091 19 24 17.2091 24 15V5C24 2.79086 22.2091 1 20 1H4ZM5.23924 14.3369C5.23924 14.8291 4.93846 15.1299 4.47361 15.1299C4.00193 15.1299 3.70799 14.8291 3.70799 14.3369V5.92871C3.70799 5.43652 3.9951 5.13574 4.47361 5.13574H7.52928C9.55955 5.13574 10.8242 6.31152 10.8242 8.15039C10.8242 9.46973 10.1269 10.5361 8.94432 10.9531L10.6123 13.8994C10.7353 14.1113 10.7763 14.2549 10.7763 14.4258C10.7763 14.8291 10.4414 15.1299 9.99705 15.1299C9.64158 15.1299 9.45701 15 9.23143 14.5967L7.37889 11.2061H5.23924V14.3369ZM5.23924 6.4209V9.96875H7.38572C8.56834 9.96875 9.2451 9.31934 9.2451 8.19141C9.2451 7.09082 8.52732 6.4209 7.34471 6.4209H5.23924ZM20.292 11.5342C20.292 13.6602 18.7744 15.1641 16.2998 15.1641C13.8252 15.1641 12.3076 13.6602 12.3076 11.5342V5.81934C12.3076 5.32715 12.5947 5.02637 13.0732 5.02637C13.5449 5.02637 13.8388 5.32715 13.8388 5.81934V11.4043C13.8388 12.8125 14.7275 13.8037 16.2998 13.8037C17.8721 13.8037 18.7676 12.8125 18.7676 11.4043V5.81934C18.7676 5.32715 19.0547 5.02637 19.5332 5.02637C20.0049 5.02637 20.292 5.32715 20.292 5.81934V11.5342Z" fill="black"/>
</svg>
