<svg width="24" height="20" viewBox="0 0 24 20" fill="none" xmlns="http://www.w3.org/2000/svg">
<path fill-rule="evenodd" clip-rule="evenodd" d="M4 1C1.79086 1 0 2.79086 0 5V15C0 17.2091 1.79086 19 4 19H20C22.2091 19 24 17.2091 24 15V5C24 2.79086 22.2091 1 20 1H4ZM7.666 15H4.95213C4.47361 15 4.1865 14.6992 4.1865 14.207V5.92871C4.1865 5.43652 4.47361 5.13574 4.95213 5.13574H7.666C10.5986 5.13574 12.3349 6.94043 12.3349 10.0508C12.3349 13.168 10.6054 15 7.666 15ZM5.71775 6.45508V13.6738H7.52244C9.61424 13.6738 10.7695 12.3955 10.7695 10.0645C10.7695 7.74023 9.6074 6.45508 7.52244 6.45508H5.71775ZM19.458 15H14.5635C14.0849 15 13.7978 14.6992 13.7978 14.207V5.92871C13.7978 5.43652 14.0849 5.13574 14.5635 5.13574H19.458C19.8818 5.13574 20.1689 5.39551 20.1689 5.79883C20.1689 6.20215 19.8818 6.46191 19.458 6.46191H15.3291V9.33984H19.2324C19.6357 9.33984 19.916 9.58594 19.916 9.97559C19.916 10.3584 19.6426 10.6113 19.2324 10.6113H15.3291V13.6738H19.458C19.8818 13.6738 20.1689 13.9336 20.1689 14.3369C20.1689 14.7402 19.8818 15 19.458 15Z" fill="black"/>
</svg>
