<svg width="200" height="200" viewBox="0 0 200 200" fill="none" xmlns="http://www.w3.org/2000/svg">
<g clip-path="url(#clip0_373_3929)">
<path fill-rule="evenodd" clip-rule="evenodd" d="M200 0H0V200H200V0ZM58.5 93.72H55.38V108H58.32V98.44H58.36L64.3 108H67.44V93.72H64.5V103.3H64.46L58.5 93.72ZM72.5442 104.06C72.4642 103.66 72.4242 103.253 72.4242 102.84C72.4242 102.427 72.4642 102.02 72.5442 101.62C72.6242 101.22 72.7576 100.867 72.9442 100.56C73.1442 100.253 73.4042 100.007 73.7242 99.82C74.0442 99.62 74.4442 99.52 74.9242 99.52C75.4042 99.52 75.8042 99.62 76.1242 99.82C76.4576 100.007 76.7176 100.253 76.9042 100.56C77.1042 100.867 77.2442 101.22 77.3242 101.62C77.4042 102.02 77.4442 102.427 77.4442 102.84C77.4442 103.253 77.4042 103.66 77.3242 104.06C77.2442 104.447 77.1042 104.8 76.9042 105.12C76.7176 105.427 76.4576 105.673 76.1242 105.86C75.8042 106.047 75.4042 106.14 74.9242 106.14C74.4442 106.14 74.0442 106.047 73.7242 105.86C73.4042 105.673 73.1442 105.427 72.9442 105.12C72.7576 104.8 72.6242 104.447 72.5442 104.06ZM69.9642 100.6C69.7109 101.267 69.5842 102.013 69.5842 102.84C69.5842 103.667 69.7109 104.413 69.9642 105.08C70.2176 105.747 70.5776 106.32 71.0442 106.8C71.5109 107.267 72.0709 107.627 72.7242 107.88C73.3776 108.133 74.1109 108.26 74.9242 108.26C75.7375 108.26 76.4709 108.133 77.1242 107.88C77.7909 107.627 78.3576 107.267 78.8242 106.8C79.2909 106.32 79.6509 105.747 79.9042 105.08C80.1576 104.413 80.2842 103.667 80.2842 102.84C80.2842 102.013 80.1576 101.267 79.9042 100.6C79.6509 99.92 79.2909 99.3467 78.8242 98.88C78.3576 98.4 77.7909 98.0333 77.1242 97.78C76.4709 97.5133 75.7375 97.38 74.9242 97.38C74.1109 97.38 73.3776 97.5133 72.7242 97.78C72.0709 98.0333 71.5109 98.4 71.0442 98.88C70.5776 99.3467 70.2176 99.92 69.9642 100.6ZM87.7772 96.06H90.6172V93.72H87.7772V96.06ZM90.6172 97.66H87.7772V108H90.6172V97.66ZM95.6134 97.66H92.9334V108H95.7734V102C95.7734 101.493 95.8468 101.087 95.9934 100.78C96.1401 100.46 96.3134 100.22 96.5134 100.06C96.7268 99.8867 96.9401 99.7733 97.1534 99.72C97.3801 99.6533 97.5601 99.62 97.6934 99.62C98.1468 99.62 98.4868 99.7 98.7134 99.86C98.9534 100.007 99.1201 100.207 99.2134 100.46C99.3201 100.713 99.3801 100.993 99.3934 101.3C99.4068 101.593 99.4134 101.893 99.4134 102.2V108H102.253V102.24C102.253 101.92 102.273 101.607 102.313 101.3C102.367 100.98 102.46 100.7 102.593 100.46C102.74 100.207 102.933 100.007 103.173 99.86C103.427 99.7 103.753 99.62 104.153 99.62C104.553 99.62 104.867 99.6867 105.093 99.82C105.333 99.9533 105.513 100.133 105.633 100.36C105.753 100.587 105.827 100.853 105.853 101.16C105.88 101.467 105.893 101.793 105.893 102.14V108H108.733V101.08C108.733 100.413 108.64 99.8467 108.453 99.38C108.267 98.9 108.007 98.5133 107.673 98.22C107.34 97.9267 106.94 97.7133 106.473 97.58C106.007 97.4467 105.5 97.38 104.953 97.38C104.233 97.38 103.607 97.5533 103.073 97.9C102.553 98.2467 102.14 98.6467 101.833 99.1C101.553 98.46 101.14 98.0133 100.593 97.76C100.06 97.5067 99.4668 97.38 98.8134 97.38C98.1334 97.38 97.5268 97.5267 96.9934 97.82C96.4734 98.1133 96.0268 98.5267 95.6534 99.06H95.6134V97.66ZM111.358 99.18C111.065 99.62 110.898 100.173 110.858 100.84H113.698C113.752 100.28 113.938 99.88 114.258 99.64C114.578 99.4 115.018 99.28 115.578 99.28C115.832 99.28 116.065 99.3 116.278 99.34C116.505 99.3667 116.698 99.4333 116.858 99.54C117.032 99.6333 117.165 99.7733 117.258 99.96C117.365 100.133 117.418 100.373 117.418 100.68C117.432 100.973 117.345 101.2 117.158 101.36C116.972 101.507 116.718 101.62 116.398 101.7C116.078 101.78 115.712 101.84 115.298 101.88C114.885 101.92 114.465 101.973 114.038 102.04C113.612 102.107 113.185 102.2 112.758 102.32C112.345 102.427 111.972 102.593 111.638 102.82C111.318 103.047 111.052 103.353 110.838 103.74C110.638 104.113 110.538 104.593 110.538 105.18C110.538 105.713 110.625 106.173 110.798 106.56C110.985 106.947 111.238 107.267 111.558 107.52C111.878 107.773 112.252 107.96 112.678 108.08C113.105 108.2 113.565 108.26 114.058 108.26C114.698 108.26 115.325 108.167 115.938 107.98C116.552 107.793 117.085 107.467 117.538 107C117.552 107.173 117.572 107.347 117.598 107.52C117.638 107.68 117.685 107.84 117.738 108H120.618C120.485 107.787 120.392 107.467 120.338 107.04C120.285 106.613 120.258 106.167 120.258 105.7V100.32C120.258 99.6933 120.118 99.1933 119.838 98.82C119.558 98.4333 119.198 98.1333 118.758 97.92C118.318 97.7067 117.832 97.5667 117.298 97.5C116.765 97.42 116.238 97.38 115.718 97.38C115.145 97.38 114.572 97.44 113.998 97.56C113.438 97.6667 112.932 97.8533 112.478 98.12C112.025 98.3867 111.652 98.74 111.358 99.18ZM116.958 103.2C117.145 103.133 117.298 103.047 117.418 102.94V104C117.418 104.16 117.398 104.373 117.358 104.64C117.332 104.907 117.245 105.173 117.098 105.44C116.952 105.693 116.725 105.913 116.418 106.1C116.112 106.287 115.678 106.38 115.118 106.38C114.892 106.38 114.672 106.36 114.458 106.32C114.245 106.28 114.058 106.213 113.898 106.12C113.738 106.013 113.612 105.873 113.518 105.7C113.425 105.527 113.378 105.313 113.378 105.06C113.378 104.793 113.425 104.573 113.518 104.4C113.612 104.227 113.732 104.087 113.878 103.98C114.038 103.86 114.218 103.767 114.418 103.7C114.632 103.633 114.845 103.58 115.058 103.54C115.285 103.5 115.512 103.467 115.738 103.44C115.965 103.413 116.178 103.38 116.378 103.34C116.592 103.3 116.785 103.253 116.958 103.2ZM128.343 105.32C128.036 105.48 127.683 105.56 127.283 105.56C126.843 105.56 126.476 105.467 126.183 105.28C125.889 105.093 125.649 104.853 125.463 104.56C125.289 104.267 125.163 103.94 125.083 103.58C125.016 103.207 124.983 102.833 124.983 102.46C124.983 102.073 125.023 101.707 125.103 101.36C125.196 101 125.336 100.687 125.523 100.42C125.723 100.14 125.963 99.92 126.243 99.76C126.536 99.6 126.883 99.52 127.283 99.52C127.749 99.52 128.136 99.6067 128.443 99.78C128.749 99.9533 128.996 100.187 129.183 100.48C129.369 100.773 129.503 101.113 129.583 101.5C129.663 101.873 129.703 102.273 129.703 102.7C129.703 103.073 129.649 103.433 129.543 103.78C129.449 104.113 129.303 104.413 129.103 104.68C128.903 104.947 128.649 105.16 128.343 105.32ZM132.223 108.76C132.343 108.227 132.403 107.753 132.403 107.34V97.66H129.703V99.04H129.663C129.316 98.44 128.883 98.0133 128.363 97.76C127.856 97.5067 127.263 97.38 126.583 97.38C125.863 97.38 125.223 97.52 124.663 97.8C124.116 98.08 123.656 98.46 123.283 98.94C122.909 99.4067 122.623 99.9533 122.423 100.58C122.236 101.193 122.143 101.833 122.143 102.5C122.143 103.207 122.223 103.88 122.383 104.52C122.556 105.147 122.823 105.7 123.183 106.18C123.543 106.647 124.003 107.02 124.563 107.3C125.123 107.567 125.789 107.7 126.563 107.7C127.189 107.7 127.783 107.573 128.343 107.32C128.916 107.053 129.356 106.647 129.663 106.1H129.703V107.46C129.716 108.193 129.536 108.8 129.163 109.28C128.803 109.76 128.223 110 127.423 110C126.916 110 126.469 109.893 126.083 109.68C125.696 109.48 125.436 109.113 125.303 108.58H122.483C122.523 109.167 122.683 109.667 122.963 110.08C123.256 110.507 123.616 110.853 124.043 111.12C124.483 111.387 124.963 111.58 125.483 111.7C126.016 111.833 126.536 111.9 127.043 111.9C128.229 111.9 129.176 111.74 129.883 111.42C130.589 111.1 131.129 110.707 131.503 110.24C131.876 109.787 132.116 109.293 132.223 108.76ZM140.929 100.08C141.276 100.453 141.516 101 141.649 101.72H137.029C137.043 101.52 137.083 101.293 137.149 101.04C137.229 100.787 137.356 100.547 137.529 100.32C137.716 100.093 137.956 99.9067 138.249 99.76C138.556 99.6 138.936 99.52 139.389 99.52C140.083 99.52 140.596 99.7067 140.929 100.08ZM137.729 105.52C137.303 105.107 137.069 104.44 137.029 103.52H144.489C144.543 102.72 144.476 101.953 144.289 101.22C144.103 100.487 143.796 99.8333 143.369 99.26C142.956 98.6867 142.423 98.2333 141.769 97.9C141.116 97.5533 140.349 97.38 139.469 97.38C138.683 97.38 137.963 97.52 137.309 97.8C136.669 98.08 136.116 98.4667 135.649 98.96C135.183 99.44 134.823 100.013 134.569 100.68C134.316 101.347 134.189 102.067 134.189 102.84C134.189 103.64 134.309 104.373 134.549 105.04C134.803 105.707 135.156 106.28 135.609 106.76C136.063 107.24 136.616 107.613 137.269 107.88C137.923 108.133 138.656 108.26 139.469 108.26C140.643 108.26 141.643 107.993 142.469 107.46C143.296 106.927 143.909 106.04 144.309 104.8H141.809C141.716 105.12 141.463 105.427 141.049 105.72C140.636 106 140.143 106.14 139.569 106.14C138.769 106.14 138.156 105.933 137.729 105.52Z" fill="#E0E0E0"/>
</g>
<defs>
<clipPath id="clip0_373_3929">
<rect width="200" height="200" fill="white"/>
</clipPath>
</defs>
</svg>
